<svg xmlns="http://www.w3.org/2000/svg" style="display: none;">
  <symbol id="svg-icon-chevron-down" viewBox="0 0 512 512">
    <path d="m352 160l-96 96-96-96-64 64 160 160 160-160z"/>
  </symbol>

  <symbol id="svg-icon-chevron-up" viewBox="0 0 512 512">
    <path d="m256 128l-160 160 64 64 96-96 96 96 64-64z"/>
  </symbol>

  <symbol id="svg-icon-minus-circle" viewBox="0 0 512 512">
    <path d="m384 274l0-36c0-5-2-10-5-13-4-4-8-6-13-6l-220 0c-5 0-9 2-13 6-3 3-5 8-5 13l0 36c0 5 2 10 5 13 4 4 8 6 13 6l220 0c5 0 9-2 13-6 3-3 5-8 5-13z m91-18c0 40-9 77-29 110-20 34-46 60-80 80-33 20-70 29-110 29-40 0-77-9-110-29-34-20-60-46-80-80-20-33-29-70-29-110 0-40 9-77 29-110 20-34 46-60 80-80 33-20 70-29 110-29 40 0 77 9 110 29 34 20 60 46 80 80 20 33 29 70 29 110z"/>
  </symbol>
  
  <symbol id="svg-icon-plus-circle" viewBox="0 0 512 512">
    <path d="m384 274l0-36c0-5-2-10-5-13-4-4-8-6-13-6l-73 0 0-73c0-5-2-9-6-13-3-3-8-5-13-5l-36 0c-5 0-10 2-13 5-4 4-6 8-6 13l0 73-73 0c-5 0-9 2-13 6-3 3-5 8-5 13l0 36c0 5 2 10 5 13 4 4 8 6 13 6l73 0 0 73c0 5 2 9 6 13 3 3 8 5 13 5l36 0c5 0 10-2 13-5 4-4 6-8 6-13l0-73 73 0c5 0 9-2 13-6 3-3 5-8 5-13z m91-18c0 40-9 77-29 110-20 34-46 60-80 80-33 20-70 29-110 29-40 0-77-9-110-29-34-20-60-46-80-80-20-33-29-70-29-110 0-40 9-77 29-110 20-34 46-60 80-80 33-20 70-29 110-29 40 0 77 9 110 29 34 20 60 46 80 80 20 33 29 70 29 110z"/>
  </symbol>

  <symbol id="svg-icon-caret-up-down" viewBox="0 0 512 512">
    <path d="m402 311c0 5-2 9-5 13l-128 128c-4 3-8 5-13 5c-5 0-9-2-13-5l-128-128c-3-4-5-8-5-13c0-5 2-9 5-13c4-4 8-5 13-5l256 0c5 0 9 1 13 5c3 4 5 8 5 13z m0-110c0 5-2 9-5 13c-4 4-8 5-13 5l-256 0c-5 0-9-1-13-5c-3-4-5-8-5-13c0-5 2-9 5-13l128-128c4-3 8-5 13-5c5 0 9 2 13 5l128 128c3 4 5 8 5 13z"/>
  </symbol>

</svg>
